# AST/ASF file generated using VICON BodyLanguage
# -----------------------------------------------
:version 1.10
:name VICON
:units
  mass 1.0
  length 0.45
  angle deg
:documentation
   .ast/.asf automatically generated from VICON data using
   VICON BodyBuilder and BodyLanguage model FoxedUp or BRILLIANT.MOD
:root
   order TX TY TZ RX RY RZ
   axis XYZ
   position 0 0 0  
   orientation 0 0 0 
:bonedata
  begin
     id 1 
     name lhipjoint
     direction 0.528046 -0.759594 0.379717 
     length 2.39752 
     axis 0 0 0  XYZ
  end
  begin
     id 2 
     name lfemur
     direction 0.34202 -0.939693 0  
     length 7.31175  
     axis 0 0 20  XYZ
    dof rx ry rz
    limits (-160.0 20.0)
           (-70.0 70.0)
           (-60.0 70.0)
  end
  begin
     id 3 
     name ltibia
     direction 0.34202 -0.939693 0   
     length 7.52482   
     axis 0 0 20   XYZ
    dof rx
    limits (-10.0 170.0)
  end
  begin
     id 4 
     name lfoot
     direction 0.0675379 -0.185559 0.980309   
     length 2.00961   
     axis -90 7.62852e-016 20   XYZ
    dof rx rz
    limits (-45.0 90.0)
           (-70.0 20.0)
  end
  begin
     id 5 
     name ltoes
     direction 1.5352e-011 -4.22286e-011 1   
     length 1.01383   
     axis -90 7.62852e-016 20   XYZ
    dof rx
    limits (-90.0 20.0)
  end
  begin
     id 6 
     name rhipjoint
     direction -0.510274 -0.769251 0.384544   
     length 2.36742  
     axis 0 0 0  XYZ 
  end
  begin
     id 7 
     name rfemur
     direction -0.34202 -0.939693 0   
     length 7.45325   
     axis 0 0 -20   XYZ
    dof rx ry rz
    limits (-160.0 20.0)
           (-70.0 70.0)
           (-70.0 60.0)
  end
  begin
     id 8 
     name rtibia
     direction -0.34202 -0.939693 0   
     length 7.49587   
     axis 0 0 -20   XYZ
    dof rx
    limits (-10.0 170.0)
 end
 begin
     id 9 
     name rfoot
     direction -0.106475 -0.292536 0.950308   
     length 2.20898  
     axis -90 -7.62852e-016 -20   XYZ
    dof rx rz
    limits (-45.0 90.0)
           (-20.0 70.0)
  end
  begin
     id 10 
     name rtoes
     direction -1.53597e-011 -4.22023e-011 1   
     length 1.10065   
     axis -90 -7.62852e-016 -20   XYZ
    dof rx
    limits (-90.0 20.0)
  end
  begin
     id 11 
     name lowerback
     direction 0.0260024 0.998026 -0.0571652   
     length 2.11214   
     axis 0 0 0   XYZ
    dof rx ry rz
    limits (-20.0 45.0)
           (-30.0 30.0)
           (-30.0 30.0)
  end
  begin
     id 12 
     name upperback
     direction 0.0216202 0.999542 -0.0211766   
     length 2.11689   
     axis 0 0 0   XYZ
    dof rx ry rz
    limits (-20.0 45.0)
           (-30.0 30.0)
           (-30.0 30.0)
  end
  begin
     id 13 
     name thorax
     direction 0.00883312 0.999944 0.00589057   
     length 2.11821   
     axis 0 0 0   XYZ
    dof rx ry rz
    limits (-20.0 45.0)
           (-30.0 30.0)
           (-30.0 30.0)
  end
  begin
     id 14 
     name lowerneck
     direction -0.059386 0.994433 0.0870401   
     length 1.81176   
     axis 0 0 0   XYZ
    dof rx ry rz
    limits (-20.0 45.0)
           (-30.0 30.0)
           (-30.0 30.0)
  end
  begin
     id 15 
     name upperneck
     direction 0.0506457 0.97328 -0.223967   
     length 1.82382   
     axis 0 0 0   XYZ
    dof rx ry rz
    limits (-20.0 45.0)
           (-30.0 30.0)
           (-30.0 30.0)
  end
  begin
     id 16
     name head
     direction 0.0205902 0.996147 -0.0852487  
     length 1.84805  
     axis 0 0 0   XYZ
    dof rx ry rz
    limits (-20.0 45.0)
           (-30.0 30.0)
           (-30.0 30.0)
  end
  begin
     id 17 
     name lclavicle
     direction 0.949493 0.303881 -0.0782325  
     length 3.60584  
     axis 0 0 0   XYZ
    dof ry rz
    limits (-20.0 10.0)
           (0.0 20.0)
  end
  begin
     id 18 
     name lhumerus
     direction 1 -4.48965e-011 1.48782e-027   
     length 4.95681   
     axis 180 -30 -90   XYZ
    dof rx ry rz
    limits (-60.0 90.0)
           (-90.0 90.0)
           (-90.0 90.0)
  end
  begin
     id 19
     name lradius
     direction 1 -4.48952e-011 2.06528e-027   
     length 3.40915   
     axis 180 -30 -90   XYZ
    dof rx
    limits (-10.0 170.0)
  end
  begin
     id 20
     name lwrist
     direction 1 -4.48964e-011 1.28021e-027   
     length 1.70457   
     axis -1.61767e-015 90 90   XYZ
    dof ry
    limits (-180.0 0.0)
 end
  begin
     id 21 
     name lhand
     direction 1 -4.49094e-011 2.54887e-027   
     length 0.616403   
     axis -1.63363e-015 90 90   XYZ
    dof rx rz
    limits (-90.0 90.0)
           (-45.0 45.0)
  end
  begin
     id 22 
     name lfingers
     direction 1 -4.49002e-011 5.11407e-027   
     length 0.49696   
     axis -3.26723e-015 90 90   XYZ
    dof rx
    limits (0.0 90.0)
  end
  begin
     id 23
     name lthumb
     direction 0.707107 -6.34998e-011 0.707107   
     length 0.713539   
     axis -90 45 -2.25915e-014   XYZ
    dof rx rz
    limits (-45.0 45.0)
           (-45.0 45.0)
  end
  begin
     id 24 
     name rclavicle
     direction -0.937751 0.334612 -0.0930482   
     length 3.46287  
     axis 0 0 0   XYZ 
    dof ry rz
    limits (-10.0 20.0)
           (-20.0 0.0)
  end
  begin
     id 25 
     name rhumerus
     direction -1 -4.48962e-011 3.59972e-027  
     length 5.352   
     axis 180 30 90   XYZ
    dof rx ry rz
    limits (-90.0 60.0)
           (-90.0 90.0)
           (-90.0 90.0)
  end
  begin
     id 26 
     name rradius
     direction -1 -4.48987e-011 -3.76925e-027   
     length 3.43721   
     axis 180 30 90   XYZ
    dof rx
    limits (-10.0 170.0)
  end
  begin
     id 27 
     name rwrist
     direction -1 -4.48943e-011 1.28112e-027   
     length 1.7186   
     axis -1.61767e-015 -90 -90   XYZ
    dof ry
    limits (-180.0 0.0)
  end
  begin
     id 28
     name rhand
     direction -1 -4.49027e-011 2.55483e-027   
     length 0.72009   
     axis -1.63363e-015 -90 -90   XYZ
    dof rx rz
    limits (-90.0 90.0)
           (-45.0 45.0)
  end
  begin
     id 29
     name rfingers
     direction -1 -4.48827e-011 5.14506e-027   
     length 0.580555   
     axis -3.26723e-015 -90 -90   XYZ
    dof rx
    limits (0.0 90.0)
  end
  begin
     id 30
     name rthumb
     direction -0.707107 -6.34936e-011 0.707107   
     length 0.833564   
     axis -90 -45 2.25915e-014   XYZ
    dof rx rz
    limits (-45.0 45.0)
           (-45.0 45.0)
  end
:hierarchy
  begin
    root lhipjoint rhipjoint lowerback
    lhipjoint lfemur
    lfemur ltibia
    ltibia lfoot
    lfoot ltoes
    rhipjoint rfemur
    rfemur rtibia
    rtibia rfoot
    rfoot rtoes
    lowerback upperback
    upperback thorax
    thorax lowerneck lclavicle rclavicle
    lowerneck upperneck
    upperneck head
    lclavicle lhumerus
    lhumerus lradius
    lradius lwrist
    lwrist lhand lthumb
    lhand lfingers
    rclavicle rhumerus
    rhumerus rradius
    rradius rwrist
    rwrist rhand rthumb
    rhand rfingers
  end

#!OML:ASF H:\Terrain\Patient Classification 1\Terrain2\Thursday\justin.ASF
:FULLY-SPECIFIED
:DEGREES
117
root 18.3526 17.4971 -23.7771 -2.99336 -2.87978 -8.19155
lowerback 10.3045 1.38423 10.5748
upperback 3.97398 2.95697 4.79265
thorax -1.3121 1.517 -1.23418
lowerneck -13.877 -1.86292 -9.4549
upperneck 32.8727 -0.803332 2.52024
head 13.4853 -1.16776 2.52925
rclavicle -2.50469e-014 -3.10104e-014
rhumerus -28.3874 -9.72461 -75.9559
rradius 26.9979
rwrist -10.2882
rhand -21.2432 1.90615
rfingers 7.12502
rthumb 5.13949 -28.0115
lclavicle -2.50469e-014 -3.10104e-014
lhumerus -37.0136 7.73786 84.6916
lradius 31.1147
lwrist 1.55558
lhand -15.0542 21.0522
lfingers 7.12502
lthumb 11.1125 50.738
rfemur 11.2652 -4.21062 33.9831
rtibia 6.30428
rfoot -11.2372 -5.73292
rtoes 10.2844
lfemur -62.9127 14.8263 -11.5874
ltibia 100.342
lfoot -16.3602 -13.7942
ltoes -12.0961
118
root 18.3505 17.5034 -23.7412 -3.05916 -3.02159 -7.96219
lowerback 10.5345 1.53486 10.5851
upperback 4.06415 3.17556 4.58418
thorax -1.30898 1.62941 -1.4859
lowerneck -14.168 -1.96004 -9.41715
upperneck 32.8732 -0.971085 2.66741
head 13.5604 -1.21535 2.55639
rclavicle 3.33958e-014 4.92986e-014
rhumerus -28.0083 -10.006 -76.1873
rradius 26.8302
rwrist -10.6108
rhand -21.7724 4.31411
rfingers 7.12502
rthumb 4.62856 -25.6153
lclavicle 3.33958e-014 4.92986e-014
lhumerus -36.9331 7.65969 84.5844
lradius 30.2445
lwrist 0.938928
lhand -14.9976 19.8795
lfingers 7.12502
lthumb 11.1671 49.5623
rfemur 11.5884 -4.04493 33.7483
rtibia 6.10563
rfoot -11.2381 -5.76935
rtoes 10.2862
lfemur -63.9088 14.9229 -12.0721
ltibia 100.098
lfoot -16.3002 -14.0728
ltoes -13.511
119
root 18.3519 17.4954 -23.7078 -3.03682 -3.17154 -8.17099
lowerback 10.7373 1.51272 10.809
upperback 3.91981 3.21473 4.6639
thorax -1.55992 1.634 -1.54061
lowerneck -13.9037 -1.84075 -9.46193
upperneck 32.9035 -0.784889 2.58726
head 13.5026 -1.15166 2.56103
rclavicle 4.17448e-014 4.37326e-014
rhumerus -28.2342 -9.15851 -76.4
rradius 27.111
rwrist -11.4528
rhand -22.5236 7.40793
rfingers 7.12502
rthumb 3.90314 -22.5361
lclavicle 4.17448e-014 4.37326e-014
lhumerus -37.4777 8.15031 84.4049
lradius 29.7581
lwrist 0.642633
lhand -14.9038 19.5773
lfingers 7.12502
lthumb 11.2576 49.2552
rfemur 11.9552 -3.88176 33.9757
rtibia 5.62956
rfoot -11.0911 -5.72146
rtoes 10.7682
lfemur -65.0551 15.0242 -12.0595
ltibia 99.818
lfoot -15.9737 -14.3495
ltoes -14.4199
120
root 18.3523 17.4945 -23.6705 -2.95634 -3.31523 -8.17996
lowerback 10.8069 1.47319 10.7764
upperback 3.83386 3.18034 4.74259
thorax -1.69972 1.60731 -1.44212
lowerneck -13.8157 -1.72132 -9.67866
upperneck 32.9585 -0.554402 2.58026
head 13.4931 -1.08107 2.63192
rclavicle 2.98177e-015 1.59028e-014
rhumerus -28.3033 -8.45071 -76.4825
rradius 27.1998
rwrist -11.6185
rhand -22.7952 8.74307
rfingers 7.12502
rthumb 3.64083 -21.2056
lclavicle 2.98177e-015 1.59028e-014
lhumerus -37.9569 8.8927 84.19
lradius 29.3977
lwrist 0.440699
lhand -14.9288 20.0476
lfingers 7.12502
lthumb 11.2334 49.7269
rfemur 12.6322 -3.69818 34.0108
rtibia 4.39313
rfoot -10.5746 -5.70991
rtoes 10.7754
lfemur -66.0653 15.0732 -12.2627
ltibia 99.3152
lfoot -15.4475 -14.7559
ltoes -14.1577
121
root 18.3498 17.5042 -23.627 -2.97041 -3.38661 -8.08347
lowerback 10.8211 1.40039 10.4844
upperback 3.75112 3.06928 4.88061
thorax -1.83231 1.54229 -1.12985
lowerneck -13.3855 -1.56821 -9.90647
upperneck 32.7967 -0.28884 2.48875
head 13.313 -1.00101 2.66983
rclavicle 2.127e-014 7.95139e-015
rhumerus -28.3072 -7.95996 -76.3545
rradius 27.0281
rwrist -10.9401
rhand -22.1567 2.13315
rfingers 7.12502
rthumb 4.25747 -27.804
lclavicle 2.127e-014 7.95139e-015
lhumerus -38.5951 10.0014 83.8171
lradius 28.7775
lwrist 0.0765044
lhand -14.3565 19.9222
lfingers 7.12502
lthumb 11.7854 49.5706
rfemur 13.5987 -3.60046 33.9307
rtibia 2.79641
rfoot -9.91176 -5.71748
rtoes 10.7827
lfemur -66.801 14.8772 -12.4678
ltibia 98.5882
lfoot -14.5648 -15.1996
ltoes -12.3822
122
root 18.3485 17.508 -23.5856 -3.036 -3.49168 -8.09228
lowerback 10.7222 1.72678 11.0515
upperback 4.26828 3.47623 4.47151
thorax -1.12511 1.79628 -1.88834
lowerneck -14.6465 -2.0008 -9.46627
upperneck 32.8871 -0.969244 2.70069
head 13.6725 -1.21478 2.57966
rclavicle 3.27995e-014 1.51076e-014
rhumerus -27.4633 -9.51287 -76.5913
rradius 27.0325
rwrist -10.6806
rhand -21.7331 2.24482
rfingers 7.12502
rthumb 4.66651 -27.6838
lclavicle 3.27995e-014 1.51076e-014
lhumerus -37.4567 9.56369 83.519
lradius 27.7605
lwrist -0.208978
lhand -13.7558 19.7014
lfingers 7.12502
lthumb 12.3646 49.3157
rfemur 14.7755 -3.49057 33.9593
rtibia 0.973158
rfoot -9.14106 -5.6828
rtoes 10.3021
lfemur -67.4557 14.6364 -12.5443
ltibia 97.6876
lfoot -13.9043 -15.2761
ltoes -12.9334
123
root 18.3503 17.5071 -23.5494 -3.09789 -3.69112 -8.1282
lowerback 10.7169 1.71677 11.1446
upperback 4.36504 3.46072 4.48066
thorax -1.01513 1.79705 -1.92428
lowerneck -14.5629 -1.9325 -9.61996
upperneck 32.9428 -0.849028 2.75073
head 13.6714 -1.17691 2.64634
rclavicle 2.98177e-014 3.18055e-015
rhumerus -27.367 -8.94096 -76.7797
rradius 27.265
rwrist -11.258
rhand -21.5382 8.97379
rfingers 7.12502
rthumb 4.85466 -20.9506
lclavicle 2.98177e-014 3.18055e-015
lhumerus -37.6413 10.3907 83.1511
lradius 27.0527
lwrist -0.572551
lhand -13.5469 19.6886
lfingers 7.12502
lthumb 12.566 49.2907
rfemur 15.5477 -3.28811 34.0074
rtibia -4.29375e-014
rfoot -8.78775 -5.65403
rtoes 9.52304
lfemur -67.9755 14.5867 -12.5542
ltibia 96.659
lfoot -13.1453 -15.5062
ltoes -13.3595
124
root 18.3487 17.5113 -23.5124 -3.18089 -3.85878 -7.96977
lowerback 11.0005 1.71628 10.9215
upperback 4.25187 3.4921 4.48925
thorax -1.30389 1.79358 -1.81421
lowerneck -14.306 -1.81444 -9.62972
upperneck 33.0544 -0.647547 2.59498
head 13.6494 -1.115 2.61864
rclavicle -2.14687e-014 -2.22639e-014
rhumerus -27.5904 -8.34679 -76.8015
rradius 27.2724
rwrist -11.2608
rhand -21.0406 3.52173
rfingers 7.12502
rthumb 5.3351 -26.3911
lclavicle -2.14687e-014 -2.22639e-014
lhumerus -38.1801 11.2016 82.7597
lradius 26.4641
lwrist -0.958986
lhand -13.822 19.4243
lfingers 7.12502
lthumb 12.3007 49.0425
rfemur 15.7965 -3.09907 33.8189
rtibia 4.13472e-014
rfoot -8.87666 -5.59529
rtoes 10.3987
lfemur -68.304 14.3521 -12.5644
ltibia 95.5349
lfoot -11.6585 -16.0282
ltoes -10.8256
125
root 18.344 17.5081 -23.4699 -3.28643 -3.84904 -7.8501
lowerback 11.3076 1.70389 10.7102
upperback 4.11707 3.51342 4.49
thorax -1.62818 1.78397 -1.71928
lowerneck -14.0195 -1.70883 -9.45667
upperneck 33.0469 -0.490383 2.34532
head 13.5705 -1.05796 2.51193
rclavicle 4.1546e-014 3.4191e-014
rhumerus -27.8197 -7.99284 -76.8432
rradius 27.2259
rwrist -11.0816
rhand -21.2841 4.57345
rfingers 7.12502
rthumb 5.10004 -25.3452
lclavicle 4.1546e-014 3.4191e-014
lhumerus -38.6808 12.1147 82.2542
lradius 25.7381
lwrist -1.73432
lhand -14.1456 19.898
lfingers 7.12502
lthumb 11.9888 49.5347
rfemur 15.9993 -3.08856 33.6567
rtibia 1.59028e-015
rfoot -8.93654 -5.50772
rtoes 12.0086
lfemur -68.6763 13.9223 -12.5935
ltibia 94.3613
lfoot -10.5499 -16.194
ltoes -12.428
